<?xml version="1.0" standalone="no"?>
<!DOCTYPE svg PUBLIC "-//W3C//DTD SVG 20010904//EN"
 "http://www.w3.org/TR/2001/REC-SVG-20010904/DTD/svg10.dtd">
<svg version="1.0" xmlns="http://www.w3.org/2000/svg"
 width="8751.000000pt" height="8751.000000pt" viewBox="0 0 8751.000000 8751.000000"
 preserveAspectRatio="xMidYMid meet">

<g transform="translate(0.000000,8751.000000) scale(0.100000,-0.100000)"
fill="#000000" stroke="none">
<path d="M26910 73779 c-2018 -113 -3913 -745 -5586 -1860 -1718 -1147 -3087
-2749 -3949 -4624 -601 -1308 -937 -2703 -1005 -4175 -6 -140 -10 -5380 -10
-14944 0 -14022 1 -14728 18 -14724 9 2 972 249 2139 549 l2123 544 -5 30 c-7
40 -32 415 -47 700 -16 299 -16 1302 0 1600 98 1814 431 3385 1036 4883 179
444 451 1015 667 1402 866 1553 2006 2838 3414 3850 165 119 531 361 700 464
72 44 131 80 133 81 1 1 -4 45 -13 97 -46 288 -45 155 -45 4830 l0 4397 -797
4 c-679 3 -815 6 -913 20 -558 82 -921 250 -1228 571 -200 210 -323 455 -380
761 -25 137 -22 452 7 609 68 378 251 674 549 886 176 125 462 246 723 304
366 81 470 88 1312 93 l727 5 0 886 c0 880 6 1127 35 1522 71 944 253 1757
530 2370 349 771 938 1358 1734 1726 898 415 2126 610 3731 591 478 -6 629
-12 965 -43 1029 -93 1784 -329 2246 -702 166 -134 328 -330 413 -501 205
-407 203 -970 -5 -1384 -184 -365 -512 -655 -859 -761 -262 -79 -485 -72
-1245 39 -827 121 -1287 134 -1730 49 -484 -94 -805 -322 -979 -695 -147 -317
-249 -752 -302 -1294 -14 -138 -18 -324 -21 -987 l-5 -818 664 0 c365 0 742
-5 838 -10 965 -54 1599 -294 1925 -729 159 -210 238 -448 252 -756 6 -140 -8
-352 -33 -505 -37 -218 -103 -408 -196 -558 -62 -100 -196 -241 -287 -302
-205 -137 -607 -263 -1041 -326 -372 -54 -430 -56 -1302 -61 l-818 -5 0 -3841
0 -3842 223 37 c406 67 766 110 1217 145 175 13 347 17 770 18 556 0 688 -5
1090 -46 2645 -265 4950 -1536 6799 -3749 1418 -1697 2525 -3930 3135 -6321
36 -140 74 -301 85 -359 109 -573 -17 -1186 -345 -1677 -105 -157 -183 -250
-330 -393 -188 -182 -382 -318 -609 -426 -177 -83 -289 -120 -588 -193 -155
-38 -3945 -941 -8422 -2007 -4477 -1065 -8144 -1940 -8148 -1944 -16 -14 99
-624 188 -1000 160 -672 384 -1362 649 -1998 504 -1207 1183 -2314 2009 -3277
416 -484 936 -991 1409 -1372 1123 -906 2342 -1524 3658 -1853 548 -137 1061
-214 1673 -250 203 -12 307 -28 457 -69 206 -57 408 -157 590 -292 113 -83
289 -263 372 -379 80 -113 184 -311 226 -431 44 -124 98 -348 112 -462 17
-136 7 -411 -19 -542 -54 -264 -172 -519 -338 -732 -287 -370 -699 -607 -1163
-669 -135 -18 -257 -17 -560 1 -4313 264 -7750 1872 -10257 4798 -1362 1591
-2434 3561 -3201 5887 -150 454 -290 921 -393 1314 -19 71 -39 130 -44 132 -6
3 -1084 -272 -2395 -610 -1312 -338 -2406 -620 -2432 -626 l-48 -12 0 -3012
c0 -3289 1 -3335 61 -3916 183 -1780 798 -3492 1794 -4995 427 -644 853 -1164
1414 -1726 374 -373 667 -632 1056 -934 1831 -1419 4022 -2220 6355 -2325 307
-13 39058 -14 39365 0 526 23 1009 76 1510 166 3068 546 5781 2375 7458 5026
1033 1632 1614 3481 1707 5433 17 354 9 39627 -8 39825 -7 80 -22 237 -32 350
-395 4086 -3021 7631 -6827 9215 -896 374 -1882 636 -2853 759 -178 23 -275
33 -665 68 -99 9 -4823 12 -19885 13 -10865 1 -19820 -2 -19900 -6z m22670
-9459 c1285 -46 2365 -274 3415 -722 1236 -528 2279 -1328 3088 -2371 706
-909 1233 -2061 1506 -3291 134 -602 207 -1152 242 -1829 15 -301 6 -1140 -15
-1407 -100 -1241 -347 -2259 -791 -3260 -993 -2240 -2890 -3810 -5331 -4414
-1282 -317 -2856 -373 -4204 -150 -1863 308 -3484 1168 -4692 2491 -1048 1147
-1725 2577 -2017 4265 -186 1069 -206 2354 -55 3453 125 908 348 1724 685
2502 98 227 317 661 435 863 943 1617 2388 2775 4234 3394 1063 356 2268 520
3500 476z m15524 -345 c332 -39 605 -132 837 -286 132 -88 313 -271 407 -414
279 -420 439 -1003 492 -1795 6 -91 13 -166 14 -167 2 -2 50 74 107 169 527
876 1164 1625 1677 1976 438 299 971 472 1601 522 173 13 598 13 772 0 725
-56 1433 -256 2117 -599 663 -332 1079 -719 1283 -1192 164 -378 182 -862 47
-1274 -85 -262 -230 -488 -449 -700 -269 -261 -561 -426 -880 -497 -86 -19
-133 -23 -274 -23 -151 0 -183 3 -290 28 -194 46 -432 113 -705 199 -470 148
-666 201 -946 257 -352 71 -630 97 -949 88 -705 -19 -1218 -230 -1650 -678
-403 -418 -684 -998 -905 -1867 -191 -751 -302 -1602 -365 -2792 -46 -889 -55
-1502 -55 -3970 0 -1325 -4 -2176 -10 -2260 -69 -926 -378 -1542 -974 -1942
-257 -172 -524 -273 -856 -325 -163 -25 -531 -25 -685 0 -390 64 -700 203
-981 440 -451 379 -690 873 -791 1642 -16 121 -17 551 -21 6460 -2 4445 0
6384 8 6510 37 624 150 1110 348 1500 187 367 482 664 813 819 181 85 419 150
634 174 134 15 487 14 629 -3z m-579 -21920 c409 -61 758 -246 1086 -574 154
-155 236 -269 323 -451 110 -230 159 -470 207 -1015 8 -89 13 -642 16 -1764
l4 -1634 -434 429 c-238 236 -1077 1067 -1863 1847 l-1430 1418 9 77 c40 364
183 733 382 992 275 357 698 604 1155 674 129 19 419 20 545 1z m228 -7222
l1062 -1053 741 0 c887 0 1011 -8 1279 -77 519 -134 883 -499 990 -993 22
-103 31 -351 16 -477 -32 -272 -135 -498 -304 -667 -209 -209 -565 -359 -1051
-441 -329 -56 -646 -75 -1249 -75 l-418 0 4 -3827 c4 -3908 4 -3921 42 -4318
35 -363 96 -573 226 -781 193 -307 458 -437 920 -451 285 -9 492 15 989 112
514 101 836 134 1030 106 364 -54 732 -332 910 -688 94 -188 125 -335 124
-583 -1 -254 -31 -394 -134 -605 -114 -236 -295 -433 -560 -610 -523 -349
-1244 -546 -2310 -631 -268 -21 -1075 -30 -1347 -15 -1060 60 -1789 278 -2357
705 -541 407 -880 927 -1055 1622 -121 478 -186 976 -243 1834 -8 125 -12
1307 -15 4153 l-4 3977 -282 0 c-155 0 -343 5 -417 10 -532 40 -905 203 -1164
511 -223 264 -319 555 -303 919 15 336 130 596 368 831 243 241 546 374 989
435 77 10 231 17 463 21 l347 6 0 1331 c0 1443 13 2072 46 2314 l6 42 800
-792 c440 -436 1277 -1267 1861 -1845z m-13803 -713 c1920 -97 3197 -463 4075
-1166 600 -481 994 -1097 1248 -1954 174 -587 268 -1183 319 -2020 16 -269 15
-2296 -2 -3995 -13 -1199 -10 -1349 26 -1690 56 -536 147 -964 345 -1623 228
-760 319 -1162 319 -1403 0 -324 -132 -621 -404 -906 -328 -344 -723 -550
-1159 -604 -151 -18 -388 -7 -512 24 -309 78 -592 255 -900 562 -344 342 -727
843 -1084 1417 -46 74 -77 115 -84 111 -7 -4 -93 -68 -192 -143 -1085 -821
-2168 -1406 -3118 -1684 -657 -193 -1284 -282 -2053 -293 -595 -8 -980 24
-1439 122 -1261 270 -2316 974 -2930 1958 -328 526 -524 1080 -602 1707 -25
206 -25 752 0 960 97 786 351 1400 823 1990 119 148 407 443 549 562 495 412
1057 711 1740 925 293 91 635 168 1850 418 1181 242 1534 317 2110 445 965
214 1779 421 2748 696 l278 79 -6 65 c-3 36 -10 130 -16 210 -60 831 -259
1486 -581 1917 -365 488 -1168 725 -2378 700 -1346 -29 -2046 -272 -2721 -947
-220 -219 -331 -365 -664 -865 -420 -632 -578 -848 -669 -916 -106 -80 -255
-134 -458 -166 -158 -25 -554 -25 -683 -1 -344 65 -624 210 -866 448 -113 112
-198 229 -264 364 -98 201 -135 375 -135 636 0 528 149 1032 461 1555 395 662
956 1170 1768 1599 1077 570 2255 850 3851 916 253 10 1132 4 1410 -10z"/>
<path d="M49005 61123 c-552 -21 -1134 -167 -1605 -403 -1032 -518 -1744
-1468 -2140 -2858 -148 -519 -244 -1121 -280 -1762 -13 -227 -13 -917 0 -1135
64 -1092 282 -1993 676 -2785 229 -461 497 -835 835 -1165 606 -592 1324 -927
2209 -1031 184 -21 644 -29 845 -15 854 63 1540 322 2162 817 141 113 471 447
597 604 224 282 379 528 546 865 377 764 582 1636 641 2730 13 252 7 1093 -10
1300 -46 560 -112 987 -216 1405 -247 987 -667 1759 -1291 2371 -769 752
-1760 1107 -2969 1062z"/>
<path d="M52740 26292 c-572 -196 -1241 -368 -2480 -636 -1400 -303 -1958
-436 -2215 -527 -341 -121 -802 -412 -1039 -656 -246 -252 -389 -582 -425
-983 -50 -544 97 -1039 427 -1443 81 -98 269 -279 370 -356 333 -252 728 -399
1212 -452 145 -15 552 -15 730 0 611 54 1133 201 1645 461 795 404 1330 958
1600 1655 153 395 258 944 305 1590 17 245 31 780 28 1095 l-3 305 -155 -53z"/>
<path d="M32250 45684 c-30 -2 -131 -8 -225 -14 -425 -28 -920 -106 -1391
-220 -972 -234 -1848 -639 -2589 -1195 -973 -731 -1722 -1716 -2255 -2966
-652 -1530 -915 -3471 -723 -5342 l17 -169 30 5 c75 12 14162 3370 14170 3378
21 19 -162 704 -297 1109 -605 1823 -1609 3317 -2851 4244 -893 667 -1904
1050 -3036 1151 -163 15 -727 27 -850 19z"/>
</g>
</svg>
