<svg version="1.1" xmlns="http://www.w3.org/2000/svg" xmlns:xlink="http://www.w3.org/1999/xlink" width="48" height="48"><defs><linearGradient x1="11.69901" y1="11.67151" x2="63.06899" y2="63.09651" gradientUnits="userSpaceOnUse" id="color-1"><stop offset="0" stop-color="#000000" stop-opacity="0.3"></stop><stop offset="1" stop-color="#000000" stop-opacity="0"></stop></linearGradient><filter id="dropshadow-base"><feColorMatrix type="matrix" values="0 0 0 0 0  0 0 0 0 0  0 0 0 0 0  0 0 0 .8 0"></feColorMatrix> <feOffset dx="0" dy="1"></feOffset> <feGaussianBlur stdDeviation="1"></feGaussianBlur> <feComposite in="SourceGraphic"></feComposite></filter><filter id="dropshadow-banner" x="-10%" y="-10%" width="120%" height="130%"><feColorMatrix type="matrix" values="0 0 0 0 0  0 0 0 0 0  0 0 0 0 0  0 0 0 .4 0"></feColorMatrix> <feOffset dx="0" dy="1"></feOffset> <feGaussianBlur stdDeviation="0.5"></feGaussianBlur> <feComposite in="SourceGraphic"></feComposite></filter></defs><g fill="none" fill-rule="nonzero" stroke="none" stroke-width="none" stroke-linecap="butt" stroke-linejoin="miter" stroke-miterlimit="10" stroke-dasharray="" stroke-dashoffset="0" font-family="none" font-weight="none" font-size="none" text-anchor="none" style="mix-blend-mode: normal"><path d="M7,43c-1.10457,0 -2,-0.89543 -2,-2v-34c0,-1.10457 0.89543,-2 2,-2h34c1.10457,0 2,0.89543 2,2v34c0,1.10457 -0.89543,2 -2,2z" id="base 1 5" fill="#d81f2b" stroke-width="1"></path><path d="M32.3595,11.7044c0.39336,0.04983 0.7928,0.15597 1.15577,0.30747c0.55719,0.23189 1.05195,0.56753 1.46419,0.97977l8.02054,8.02054v19.98782c0,1.10457 -0.89543,2 -2,2h-19.98081l-7.99587,-7.99587c-0.22726,-0.22767 -0.39984,-0.43833 -0.57282,-0.69921c-0.40349,-0.60888 -0.65263,-1.30242 -0.72676,-2.02351c-0.02431,-0.23536 -0.02471,-0.254 -0.02471,-1.5864v-1.22019l0.01944,-0.00486c0.01053,-0.00243 0.45373,-0.11668 0.98522,-0.2536c0.05634,-0.01452 0.11162,-0.02876 0.16542,-0.04261l-1.16309,-1.16309c-0.00664,-0.00664 -0.00702,-0.35812 -0.00702,-5.9647c0,-3.87445 0.00162,-5.9972 0.00406,-6.05391c0.02754,-0.59632 0.16366,-1.16144 0.40714,-1.69132c0.3492,-0.75957 0.90379,-1.40855 1.59977,-1.87321c0.67775,-0.45169 1.44542,-0.70772 2.26293,-0.7535c0.03241,-0.00162 3.66014,-0.00284 8.06163,-0.00243l0.00001,0c6.10172,0.00041 8.01545,0.00162 8.05555,0.00526c0.15799,0.01418 0.19729,0.01823 0.2694,0.02754z" fill="url(#color-1)" stroke-width="1"></path><path d="M24.03455,11.6716c6.10172,0.00041 8.01545,0.00162 8.05555,0.00527c0.15799,0.01418 0.19729,0.01823 0.2694,0.02755c0.39336,0.04983 0.79279,0.15597 1.15577,0.30748c1.54184,0.64169 2.60565,2.07779 2.76566,3.73306c0.00405,0.04578 0.01013,0.10938 0.01296,0.14179c0.00689,0.08021 0.01013,15.98998 0.00324,16.13338c-0.03767,0.79077 -0.27304,1.53981 -0.69152,2.20095c-0.67936,1.07394 -1.77842,1.81488 -3.02129,2.03607c-0.20296,0.03646 -0.39863,0.05793 -0.61171,0.06725c-0.12437,0.00567 -15.82267,0.00527 -15.94703,0c-0.94511,-0.04254 -1.8327,-0.36703 -2.57445,-0.94187c-0.15759,-0.12234 -0.27628,-0.22726 -0.42779,-0.37837c-0.22726,-0.22767 -0.39984,-0.43833 -0.57282,-0.69921c-0.40349,-0.60888 -0.65263,-1.30242 -0.72676,-2.02351c-0.02431,-0.23537 -0.02471,-0.254 -0.02471,-1.5864v-1.22018l0.01945,-0.00486c0.01053,-0.00243 0.45372,-0.11667 0.98522,-0.2536c0.5311,-0.13693 0.9678,-0.24833 0.97023,-0.24712c0.00203,0.00081 0.01013,0.02471 0.01782,0.05347c0.04173,0.15921 0.09844,0.34839 0.15921,0.53231c0.31072,0.94228 0.74499,1.74034 1.29675,2.38486c1.0156,1.18534 2.40796,1.83675 4.15518,1.9437c0.12275,0.00729 0.17217,0.0077 0.22686,0.00041c0.18797,-0.02512 0.35487,-0.12113 0.47114,-0.27102c0.06725,-0.08629 0.11505,-0.18959 0.13693,-0.29654c0.01053,-0.05307 0.01458,-0.16447 0.0077,-0.21957c-0.00567,-0.04618 -0.02755,-0.13693 -0.04537,-0.18716c-0.01701,-0.04861 -0.05915,-0.12882 -0.09155,-0.1746c-0.03362,-0.04699 -0.10492,-0.11991 -0.1507,-0.15354c-0.07373,-0.05469 -0.15556,-0.0952 -0.23901,-0.11829c-0.06077,-0.01661 -0.1029,-0.02309 -0.18513,-0.02795c-0.24793,-0.01458 -0.45575,-0.04578 -0.67774,-0.10128c-0.53312,-0.13328 -1.02695,-0.38364 -1.48188,-0.75066c-0.19162,-0.15435 -0.40227,-0.35973 -0.5708,-0.55581c-0.33462,-0.39012 -0.60969,-0.83857 -0.81386,-1.32754c-0.10735,-0.25765 -0.1981,-0.53717 -0.26291,-0.8094c-0.03605,-0.15232 -0.08264,-0.39944 -0.07616,-0.40511c0.00162,-0.00162 1.48715,-0.35609 3.30081,-0.78753c1.81366,-0.43184 3.34902,-0.79766 3.41181,-0.81305c0.12113,-0.02957 0.1665,-0.04456 0.2382,-0.07819c0.09196,-0.04375 0.17055,-0.09885 0.24671,-0.17258c0.05955,-0.05793 0.09115,-0.09561 0.13369,-0.15921c0.13288,-0.19891 0.18392,-0.44724 0.13976,-0.67936c-0.00446,-0.0235 -0.01985,-0.08872 -0.03443,-0.14543c-0.24712,-0.96861 -0.69557,-1.87321 -1.27001,-2.56068c-0.74904,-0.8965 -1.68281,-1.41139 -2.75432,-1.51875c-0.16285,-0.01661 -0.21633,-0.01863 -0.44157,-0.01863c-0.17136,0.00041 -0.24104,0.00203 -0.31193,0.00729c-0.1827,0.01418 -0.32854,0.0316 -0.49302,0.05874l-0.09034,0.01499v-3.11244l0.33138,-0.00203c0.35325,-0.00203 0.37675,-0.00284 0.52745,-0.02471c0.17582,-0.02552 0.33867,-0.07657 0.42172,-0.13206c0.03686,-0.02471 0.09115,-0.08183 0.11627,-0.12234c0.03767,-0.06077 0.06441,-0.13774 0.0794,-0.22605c0.01013,-0.06198 0.0158,-0.14786 0.01337,-0.20458c-0.00567,-0.12477 -0.03767,-0.22119 -0.10209,-0.30626c-0.13206,-0.17622 -0.3889,-0.27345 -0.77983,-0.29532c-0.03889,-0.00203 -0.19162,-0.00405 -0.33948,-0.00405h-0.26899l0.00203,-0.33138c0.00122,-0.26859 0.00284,-0.34394 0.00851,-0.39984c0.02147,-0.21957 0.06279,-0.39579 0.12234,-0.52421c0.07049,-0.1511 0.20053,-0.24347 0.3966,-0.28155c0.17946,-0.03443 0.36581,-0.02917 0.70083,0.01985c0.30788,0.04497 0.39822,0.0478 0.50436,0.0158c0.14057,-0.04294 0.27345,-0.16042 0.34799,-0.30829c0.08426,-0.16771 0.08507,-0.39579 0.00203,-0.56067c-0.03443,-0.06927 -0.10006,-0.14867 -0.16731,-0.20296c-0.18716,-0.1511 -0.49302,-0.24671 -0.90987,-0.28439c-0.13612,-0.01256 -0.19729,-0.01499 -0.39093,-0.01742c-0.6502,-0.0077 -1.14767,0.0713 -1.51145,0.23942c-0.32247,0.14908 -0.56107,0.38688 -0.70246,0.69921c-0.11221,0.24833 -0.18594,0.57768 -0.21471,0.9601c-0.01175,0.16002 -0.01418,0.26008 -0.01418,0.61657v0.35892l-0.29451,0.00203c-0.3411,0.00203 -0.38323,0.00486 -0.5315,0.03767c-0.10573,0.0235 -0.22159,0.07251 -0.29289,0.12315c-0.12072,0.08588 -0.19486,0.20579 -0.2224,0.35892c-0.01175,0.0636 -0.01296,0.19121 -0.00284,0.24671c0.02309,0.12396 0.07292,0.22321 0.15394,0.30829c0.12437,0.13004 0.27142,0.1981 0.49747,0.23132c0.0397,0.00567 0.0948,0.00689 0.36986,0.0081l0.32287,0.00162v1.78126c0,1.89387 -0.00041,1.84 0.01823,1.95667c0.00365,0.02107 0.00567,0.03889 0.00527,0.0393c-0.00081,0.00041 -0.02471,0.01499 -0.05388,0.03281c-0.06846,0.04173 -0.21673,0.13976 -0.28357,0.18797c-0.57039,0.40997 -1.03221,0.93053 -1.38304,1.55966c-0.0875,0.15678 -0.19769,0.38809 -0.27021,0.56796c-0.24509,0.60685 -0.37999,1.24327 -0.41969,1.97814c-0.00648,0.12072 -0.00648,0.52704 0,0.64817c0.00608,0.11546 0.0162,0.26737 0.01904,0.28357l0.00203,0.01215l-0.86004,0.22038c-0.47276,0.12153 -0.86288,0.22159 -0.86652,0.2224c-0.00689,0.00162 -0.00729,-0.28439 -0.00729,-5.96479c0,-3.87444 0.00162,-5.9972 0.00405,-6.05392c0.02755,-0.59632 0.16366,-1.16144 0.40713,-1.69132c0.3492,-0.75958 0.90379,-1.40856 1.59977,-1.87321c0.67774,-0.45169 1.44542,-0.70772 2.26293,-0.7535c0.03241,-0.00162 3.66014,-0.00284 8.06163,-0.00243zM23.73882,15.69876c-0.74783,0.25076 -1.33321,0.71987 -1.71522,1.37493c-0.0478,0.08183 -0.13652,0.25765 -0.17622,0.34961c-0.13652,0.31517 -0.22686,0.64574 -0.2775,1.01358c-0.06117,0.44521 -0.05307,0.96577 0.02228,1.39883c0.11829,0.68382 0.39255,1.26312 0.8171,1.72778c0.48937,0.53596 1.14605,0.88435 1.90076,1.00912c0.54608,0.09034 1.18372,0.06765 1.70307,-0.06077c0.98887,-0.24468 1.75735,-0.8807 2.15962,-1.78814c0.17987,-0.40551 0.27993,-0.81791 0.32044,-1.32065c0.00851,-0.10816 0.01215,-0.44805 0.00608,-0.56999c-0.01418,-0.27426 -0.04375,-0.49707 -0.09804,-0.74094c-0.11059,-0.49828 -0.32409,-0.96496 -0.61009,-1.33321c-0.32773,-0.42253 -0.75026,-0.74661 -1.25097,-0.96051c-0.42536,-0.18149 -0.86288,-0.27385 -1.38344,-0.29249c-0.49909,-0.01782 -0.98725,0.04861 -1.41787,0.19283zM31.19076,15.64448c-0.0871,0.00972 -0.18351,0.03605 -0.25684,0.07049c-0.13409,0.06279 -0.2536,0.18311 -0.32935,0.33178c-0.08021,0.15799 -0.12599,0.35487 -0.14098,0.60766c-0.00324,0.05104 -0.00405,0.83655 -0.00324,2.63725c0.00162,2.39378 0.00203,2.56797 0.00851,2.61699c0.04092,0.31153 0.13774,0.51165 0.32044,0.66519c0.11384,0.09601 0.23942,0.15232 0.39741,0.17825c0.06239,0.01013 0.21147,0.01013 0.2775,0c0.1345,-0.02107 0.24266,-0.06198 0.34677,-0.13166c0.24144,-0.16204 0.36662,-0.41159 0.39457,-0.78672c0.00243,-0.03403 0.00405,-0.37877 0.00405,-0.91554c0,-0.9998 0.00365,-1.24813 0.02228,-1.60827c0.02552,-0.48208 0.07049,-0.82682 0.14786,-1.13106c0.08953,-0.35204 0.20336,-0.587 0.36662,-0.75633c0.17501,-0.18149 0.38283,-0.26697 0.66843,-0.27466c0.12923,-0.00365 0.24185,0.00689 0.38445,0.03565c0.11343,0.02269 0.19283,0.04416 0.38323,0.10411c0.11059,0.03484 0.20701,0.06198 0.2856,0.08062c0.04335,0.01013 0.05631,0.01134 0.11748,0.01134c0.05712,0 0.07616,-0.00162 0.111,-0.00932c0.12923,-0.02876 0.24752,-0.09561 0.35649,-0.20134c0.08872,-0.08588 0.14746,-0.17744 0.18189,-0.28357c0.05469,-0.1669 0.0474,-0.36298 -0.01904,-0.51611c-0.08264,-0.19162 -0.25117,-0.34839 -0.51975,-0.48289c-0.27709,-0.13895 -0.56391,-0.21997 -0.85761,-0.24266c-0.07049,-0.00527 -0.24266,-0.00527 -0.31274,0c-0.25522,0.02026 -0.47114,0.09034 -0.64858,0.21147c-0.20782,0.14219 -0.46587,0.44562 -0.67936,0.80049c-0.02309,0.03849 -0.04254,0.06927 -0.04335,0.06846c-0.00041,-0.00041 -0.00324,-0.03079 -0.00567,-0.06765c-0.02147,-0.32084 -0.08629,-0.55702 -0.19931,-0.72717c-0.03808,-0.05793 -0.1114,-0.13206 -0.16488,-0.16771c-0.09398,-0.06239 -0.20458,-0.10006 -0.33907,-0.11586c-0.05753,-0.00689 -0.20053,-0.00729 -0.25481,-0.00122zM30.99023,24.52604c-0.18513,0.02836 -0.35649,0.12842 -0.4679,0.27304c-0.08062,0.10492 -0.13855,0.25441 -0.15475,0.40187l-0.00365,0.03119l0.5793,0.57444c0.31841,0.31598 0.6583,0.65263 0.75471,0.74823l0.17582,0.17379l-0.00162,-0.66194c-0.00122,-0.45453 -0.00324,-0.67855 -0.00648,-0.71461c-0.01945,-0.22078 -0.0393,-0.31801 -0.08386,-0.41118c-0.03524,-0.07373 -0.06846,-0.11991 -0.13085,-0.1827c-0.13288,-0.13288 -0.27426,-0.20782 -0.43995,-0.23253c-0.05104,-0.0077 -0.16852,-0.00729 -0.22078,0.00041zM30.54948,26.7039l-0.32409,-0.32084l-0.00243,0.01701c-0.01337,0.09804 -0.01863,0.35285 -0.01863,0.93742v0.5392l-0.14057,0.00243c-0.09398,0.00162 -0.15637,0.00446 -0.18756,0.00851c-0.17946,0.02471 -0.30221,0.07859 -0.40065,0.17622c-0.09642,0.0952 -0.143,0.20053 -0.14908,0.33664c-0.00648,0.14746 0.03241,0.26535 0.12275,0.37229c0.10492,0.12477 0.25603,0.19081 0.47154,0.20701c0.02998,0.00203 0.10614,0.00405 0.16893,0.00405h0.11424l0.00162,1.61111c0.00122,1.15293 0.00284,1.63177 0.00608,1.68241c0.02309,0.34758 0.04942,0.54932 0.09844,0.74297c0.07089,0.28155 0.20822,0.4922 0.42739,0.65708c0.2301,0.17298 0.52542,0.26129 0.95484,0.2856c0.11019,0.00608 0.43711,0.00243 0.54568,-0.00608c0.43184,-0.03443 0.72393,-0.11424 0.9358,-0.25562c0.10735,-0.0717 0.18068,-0.15151 0.22686,-0.24712c0.04173,-0.08548 0.05388,-0.14219 0.05428,-0.24509c0.00041,-0.10047 -0.01215,-0.16002 -0.05023,-0.23618c-0.07211,-0.14422 -0.22119,-0.25684 -0.36865,-0.27871c-0.07859,-0.01134 -0.20904,0.00203 -0.41726,0.04294c-0.20134,0.0393 -0.2852,0.04902 -0.40065,0.04537c-0.18716,-0.00567 -0.29451,-0.05834 -0.3727,-0.1827c-0.05266,-0.08426 -0.07738,-0.16933 -0.09155,-0.31639c-0.01539,-0.16083 -0.01539,-0.16609 -0.01701,-1.74925l-0.00162,-1.55034h0.16933c0.24428,0 0.3727,-0.0077 0.50598,-0.03038c0.19688,-0.03322 0.3411,-0.09398 0.42577,-0.17865c0.06846,-0.06846 0.11019,-0.16002 0.12315,-0.27021c0.00608,-0.05104 0.00243,-0.15151 -0.00648,-0.19324c-0.04335,-0.20012 -0.19081,-0.34799 -0.40106,-0.40227c-0.10857,-0.02795 -0.1588,-0.03119 -0.51813,-0.03119h-0.30018l-0.43022,-0.42658c-0.23658,-0.23415 -0.57566,-0.5708 -0.7539,-0.74742zM25.14049,27.73611c-0.64655,0.02674 -1.12377,0.14017 -1.56007,0.37108c-0.32895,0.17379 -0.55621,0.37959 -0.71623,0.64777c-0.12639,0.21187 -0.18675,0.41604 -0.18675,0.62994c0,0.10573 0.01499,0.17622 0.05469,0.25765c0.02674,0.05469 0.06117,0.10209 0.10695,0.14746c0.09804,0.09642 0.21147,0.15516 0.35082,0.18149c0.05226,0.00972 0.21268,0.00972 0.27669,-0.00041c0.08224,-0.01296 0.1426,-0.03484 0.18554,-0.06725c0.03686,-0.02755 0.10087,-0.11505 0.27102,-0.37108c0.1349,-0.20255 0.17987,-0.2617 0.26899,-0.35042c0.27345,-0.27345 0.55702,-0.37189 1.1023,-0.38364c0.49018,-0.01013 0.81548,0.08588 0.96334,0.28357c0.13044,0.1746 0.21106,0.43995 0.23537,0.77659c0.00243,0.03241 0.00527,0.07049 0.00648,0.08507l0.00243,0.02633l-0.11262,0.032c-0.39255,0.1114 -0.72231,0.19526 -1.11323,0.28195c-0.23334,0.05185 -0.37634,0.08224 -0.85478,0.18027c-0.4922,0.10128 -0.63075,0.13247 -0.74945,0.16933c-0.27669,0.08669 -0.50436,0.20782 -0.70489,0.37472c-0.05753,0.04821 -0.1742,0.16771 -0.2224,0.22767c-0.19121,0.23901 -0.29411,0.48775 -0.3334,0.80616c-0.01013,0.08426 -0.01013,0.30545 0,0.3889c0.0316,0.254 0.111,0.47843 0.24387,0.69152c0.24874,0.39863 0.67612,0.68382 1.18696,0.7932c0.18594,0.0397 0.34191,0.05266 0.58295,0.04942c0.31153,-0.00446 0.56553,-0.04051 0.83168,-0.1187c0.38485,-0.11262 0.82358,-0.34961 1.26312,-0.6822c0.04011,-0.03038 0.07494,-0.05631 0.07778,-0.05793c0.00284,-0.00162 0.01539,0.01499 0.03403,0.04497c0.14462,0.23253 0.29978,0.43549 0.43914,0.57404c0.12477,0.12437 0.23942,0.19607 0.3646,0.22767c0.05023,0.01256 0.14624,0.01701 0.20741,0.00972c0.17663,-0.02188 0.33664,-0.10533 0.46952,-0.24468c0.11019,-0.11546 0.16366,-0.23577 0.16366,-0.36703c0,-0.09763 -0.03686,-0.26048 -0.12923,-0.56837c-0.08021,-0.26697 -0.11708,-0.44035 -0.13976,-0.65749c-0.01458,-0.13814 -0.0158,-0.19891 -0.01053,-0.68463c0.00689,-0.68828 0.00729,-1.50943 0.00081,-1.6184c-0.02066,-0.33907 -0.05874,-0.58052 -0.12923,-0.81832c-0.1029,-0.34718 -0.26251,-0.59672 -0.50557,-0.79158c-0.35568,-0.28479 -0.87301,-0.43306 -1.65081,-0.47235c-0.11262,-0.00567 -0.46871,-0.0081 -0.5712,-0.00405zM26.12652,17.23128c0.25279,0.24793 0.42293,0.56067 0.52299,0.96051c0.04213,0.16933 0.06887,0.34232 0.0875,0.56918c0.00689,0.08386 0.00932,0.42455 0.00405,0.52664c-0.0239,0.44319 -0.10695,0.79644 -0.25967,1.10594c-0.06765,0.13652 -0.13044,0.23618 -0.22119,0.35042c-0.05104,0.0636 -0.18473,0.19891 -0.24185,0.24468c-0.25198,0.20053 -0.52988,0.30545 -0.87584,0.33097c-0.08143,0.00567 -0.26778,0.00243 -0.34232,-0.00608c-0.35852,-0.04213 -0.64939,-0.17784 -0.89488,-0.41767c-0.13693,-0.13369 -0.24549,-0.2852 -0.33826,-0.47195c-0.15961,-0.32084 -0.24793,-0.68585 -0.27385,-1.12822c-0.00527,-0.08831 -0.00527,-0.36784 0,-0.4598c0.01458,-0.25967 0.05347,-0.50355 0.11343,-0.7138c0.16042,-0.5631 0.44886,-0.94795 0.86693,-1.1578c0.19081,-0.09561 0.42658,-0.15475 0.6502,-0.16326c0.48977,-0.01823 0.89124,0.12558 1.20276,0.43022zM26.49962,30.88987l0.00122,0.12356c0.00122,0.12761 -0.00446,0.34434 -0.01134,0.44359c-0.01904,0.2617 -0.06158,0.4841 -0.12356,0.64412c-0.10938,0.28236 -0.32611,0.50679 -0.64817,0.67045c-0.20741,0.10533 -0.41888,0.16488 -0.6664,0.18675c-0.07211,0.00608 -0.23699,0.00608 -0.29573,0c-0.19607,-0.02147 -0.35609,-0.08102 -0.49099,-0.18311c-0.04092,-0.03119 -0.11708,-0.10452 -0.14989,-0.14422c-0.13369,-0.16366 -0.19324,-0.36419 -0.17298,-0.58457c0.01458,-0.16245 0.07251,-0.29613 0.17217,-0.39822c0.09601,-0.09885 0.28276,-0.21673 0.42091,-0.26575c0.10411,-0.03686 0.33016,-0.09074 0.89731,-0.21349c0.50193,-0.10857 0.77294,-0.17825 1.00467,-0.25765zM18.48053,23.0632c0.45858,0.04092 0.86814,0.19607 1.2299,0.46628c0.50314,0.37553 0.90987,0.98076 1.15496,1.71927c0.05469,0.16407 0.12882,0.44157 0.12032,0.44926c-0.00324,0.00324 -5.70998,1.36359 -5.74036,1.36845l-0.01215,0.00203l-0.00689,-0.06846c-0.07778,-0.75796 0.02876,-1.54427 0.29289,-2.16408c0.21592,-0.50638 0.51935,-0.90541 0.91352,-1.20155c0.30018,-0.22524 0.65506,-0.38931 1.04882,-0.4841c0.19081,-0.04618 0.39133,-0.07778 0.5635,-0.08912c0.03808,-0.00243 0.079,-0.00486 0.09115,-0.00567c0.04983,-0.00324 0.27831,0.00162 0.34434,0.0077z" fill="none" stroke-width="0"></path><path d="M24.03455,11.6716c6.10172,0.00041 8.01545,0.00162 8.05555,0.00527c0.15799,0.01418 0.19729,0.01823 0.2694,0.02755c0.39336,0.04983 0.79279,0.15597 1.15577,0.30748c1.54184,0.64169 2.60565,2.07779 2.76566,3.73306c0.00405,0.04578 0.01013,0.10938 0.01296,0.14179c0.00689,0.08021 0.01013,15.98998 0.00324,16.13338c-0.03767,0.79077 -0.27304,1.53981 -0.69152,2.20095c-0.67936,1.07394 -1.77842,1.81488 -3.02129,2.03607c-0.20296,0.03646 -0.39863,0.05793 -0.61171,0.06725c-0.12437,0.00567 -15.82267,0.00527 -15.94703,0c-0.94511,-0.04254 -1.8327,-0.36703 -2.57445,-0.94187c-0.15759,-0.12234 -0.27628,-0.22726 -0.42779,-0.37837c-0.22726,-0.22767 -0.39984,-0.43833 -0.57282,-0.69921c-0.40349,-0.60888 -0.65263,-1.30242 -0.72676,-2.02351c-0.02431,-0.23537 -0.02471,-0.254 -0.02471,-1.5864v-1.22018l0.01945,-0.00486c0.01053,-0.00243 0.45372,-0.11667 0.98522,-0.2536c0.5311,-0.13693 0.9678,-0.24833 0.97023,-0.24712c0.00203,0.00081 0.01013,0.02471 0.01782,0.05347c0.04173,0.15921 0.09844,0.34839 0.15921,0.53231c0.31072,0.94228 0.74499,1.74034 1.29675,2.38486c1.0156,1.18534 2.40796,1.83675 4.15518,1.9437c0.12275,0.00729 0.17217,0.0077 0.22686,0.00041c0.18797,-0.02512 0.35487,-0.12113 0.47114,-0.27102c0.06725,-0.08629 0.11505,-0.18959 0.13693,-0.29654c0.01053,-0.05307 0.01458,-0.16447 0.0077,-0.21957c-0.00567,-0.04618 -0.02755,-0.13693 -0.04537,-0.18716c-0.01701,-0.04861 -0.05915,-0.12882 -0.09155,-0.1746c-0.03362,-0.04699 -0.10492,-0.11991 -0.1507,-0.15354c-0.07373,-0.05469 -0.15556,-0.0952 -0.23901,-0.11829c-0.06077,-0.01661 -0.1029,-0.02309 -0.18513,-0.02795c-0.24793,-0.01458 -0.45575,-0.04578 -0.67774,-0.10128c-0.53312,-0.13328 -1.02695,-0.38364 -1.48188,-0.75066c-0.19162,-0.15435 -0.40227,-0.35973 -0.5708,-0.55581c-0.33462,-0.39012 -0.60969,-0.83857 -0.81386,-1.32754c-0.10735,-0.25765 -0.1981,-0.53717 -0.26291,-0.8094c-0.03605,-0.15232 -0.08264,-0.39944 -0.07616,-0.40511c0.00162,-0.00162 1.48715,-0.35609 3.30081,-0.78753c1.81366,-0.43184 3.34902,-0.79766 3.41181,-0.81305c0.12113,-0.02957 0.1665,-0.04456 0.2382,-0.07819c0.09196,-0.04375 0.17055,-0.09885 0.24671,-0.17258c0.05955,-0.05793 0.09115,-0.09561 0.13369,-0.15921c0.13288,-0.19891 0.18392,-0.44724 0.13976,-0.67936c-0.00446,-0.0235 -0.01985,-0.08872 -0.03443,-0.14543c-0.24712,-0.96861 -0.69557,-1.87321 -1.27001,-2.56068c-0.74904,-0.8965 -1.68281,-1.41139 -2.75432,-1.51875c-0.16285,-0.01661 -0.21633,-0.01863 -0.44157,-0.01863c-0.17136,0.00041 -0.24104,0.00203 -0.31193,0.00729c-0.1827,0.01418 -0.32854,0.0316 -0.49302,0.05874l-0.09034,0.01499v-3.11244l0.33138,-0.00203c0.35325,-0.00203 0.37675,-0.00284 0.52745,-0.02471c0.17582,-0.02552 0.33867,-0.07657 0.42172,-0.13206c0.03686,-0.02471 0.09115,-0.08183 0.11627,-0.12234c0.03767,-0.06077 0.06441,-0.13774 0.0794,-0.22605c0.01013,-0.06198 0.0158,-0.14786 0.01337,-0.20458c-0.00567,-0.12477 -0.03767,-0.22119 -0.10209,-0.30626c-0.13206,-0.17622 -0.3889,-0.27345 -0.77983,-0.29532c-0.03889,-0.00203 -0.19162,-0.00405 -0.33948,-0.00405h-0.26899l0.00203,-0.33138c0.00122,-0.26859 0.00284,-0.34394 0.00851,-0.39984c0.02147,-0.21957 0.06279,-0.39579 0.12234,-0.52421c0.07049,-0.1511 0.20053,-0.24347 0.3966,-0.28155c0.17946,-0.03443 0.36581,-0.02917 0.70083,0.01985c0.30788,0.04497 0.39822,0.0478 0.50436,0.0158c0.14057,-0.04294 0.27345,-0.16042 0.34799,-0.30829c0.08426,-0.16771 0.08507,-0.39579 0.00203,-0.56067c-0.03443,-0.06927 -0.10006,-0.14867 -0.16731,-0.20296c-0.18716,-0.1511 -0.49302,-0.24671 -0.90987,-0.28439c-0.13612,-0.01256 -0.19729,-0.01499 -0.39093,-0.01742c-0.6502,-0.0077 -1.14767,0.0713 -1.51145,0.23942c-0.32247,0.14908 -0.56107,0.38688 -0.70246,0.69921c-0.11221,0.24833 -0.18594,0.57768 -0.21471,0.9601c-0.01175,0.16002 -0.01418,0.26008 -0.01418,0.61657v0.35892l-0.29451,0.00203c-0.3411,0.00203 -0.38323,0.00486 -0.5315,0.03767c-0.10573,0.0235 -0.22159,0.07251 -0.29289,0.12315c-0.12072,0.08588 -0.19486,0.20579 -0.2224,0.35892c-0.01175,0.0636 -0.01296,0.19121 -0.00284,0.24671c0.02309,0.12396 0.07292,0.22321 0.15394,0.30829c0.12437,0.13004 0.27142,0.1981 0.49747,0.23132c0.0397,0.00567 0.0948,0.00689 0.36986,0.0081l0.32287,0.00162v1.78126c0,1.89387 -0.00041,1.84 0.01823,1.95667c0.00365,0.02107 0.00567,0.03889 0.00527,0.0393c-0.00081,0.00041 -0.02471,0.01499 -0.05388,0.03281c-0.06846,0.04173 -0.21673,0.13976 -0.28357,0.18797c-0.57039,0.40997 -1.03221,0.93053 -1.38304,1.55966c-0.0875,0.15678 -0.19769,0.38809 -0.27021,0.56796c-0.24509,0.60685 -0.37999,1.24327 -0.41969,1.97814c-0.00648,0.12072 -0.00648,0.52704 0,0.64817c0.00608,0.11546 0.0162,0.26737 0.01904,0.28357l0.00203,0.01215l-0.86004,0.22038c-0.47276,0.12153 -0.86288,0.22159 -0.86652,0.2224c-0.00689,0.00162 -0.00729,-0.28439 -0.00729,-5.96479c0,-3.87444 0.00162,-5.9972 0.00405,-6.05392c0.02755,-0.59632 0.16366,-1.16144 0.40713,-1.69132c0.3492,-0.75958 0.90379,-1.40856 1.59977,-1.87321c0.67774,-0.45169 1.44542,-0.70772 2.26293,-0.7535c0.03241,-0.00162 3.66014,-0.00284 8.06163,-0.00243zM23.73882,15.69876c-0.74783,0.25076 -1.33321,0.71987 -1.71522,1.37493c-0.0478,0.08183 -0.13652,0.25765 -0.17622,0.34961c-0.13652,0.31517 -0.22686,0.64574 -0.2775,1.01358c-0.06117,0.44521 -0.05307,0.96577 0.02228,1.39883c0.11829,0.68382 0.39255,1.26312 0.8171,1.72778c0.48937,0.53596 1.14605,0.88435 1.90076,1.00912c0.54608,0.09034 1.18372,0.06765 1.70307,-0.06077c0.98887,-0.24468 1.75735,-0.8807 2.15962,-1.78814c0.17987,-0.40551 0.27993,-0.81791 0.32044,-1.32065c0.00851,-0.10816 0.01215,-0.44805 0.00608,-0.56999c-0.01418,-0.27426 -0.04375,-0.49707 -0.09804,-0.74094c-0.11059,-0.49828 -0.32409,-0.96496 -0.61009,-1.33321c-0.32773,-0.42253 -0.75026,-0.74661 -1.25097,-0.96051c-0.42536,-0.18149 -0.86288,-0.27385 -1.38344,-0.29249c-0.49909,-0.01782 -0.98725,0.04861 -1.41787,0.19283zM31.19076,15.64448c-0.0871,0.00972 -0.18351,0.03605 -0.25684,0.07049c-0.13409,0.06279 -0.2536,0.18311 -0.32935,0.33178c-0.08021,0.15799 -0.12599,0.35487 -0.14098,0.60766c-0.00324,0.05104 -0.00405,0.83655 -0.00324,2.63725c0.00162,2.39378 0.00203,2.56797 0.00851,2.61699c0.04092,0.31153 0.13774,0.51165 0.32044,0.66519c0.11384,0.09601 0.23942,0.15232 0.39741,0.17825c0.06239,0.01013 0.21147,0.01013 0.2775,0c0.1345,-0.02107 0.24266,-0.06198 0.34677,-0.13166c0.24144,-0.16204 0.36662,-0.41159 0.39457,-0.78672c0.00243,-0.03403 0.00405,-0.37877 0.00405,-0.91554c0,-0.9998 0.00365,-1.24813 0.02228,-1.60827c0.02552,-0.48208 0.07049,-0.82682 0.14786,-1.13106c0.08953,-0.35204 0.20336,-0.587 0.36662,-0.75633c0.17501,-0.18149 0.38283,-0.26697 0.66843,-0.27466c0.12923,-0.00365 0.24185,0.00689 0.38445,0.03565c0.11343,0.02269 0.19283,0.04416 0.38323,0.10411c0.11059,0.03484 0.20701,0.06198 0.2856,0.08062c0.04335,0.01013 0.05631,0.01134 0.11748,0.01134c0.05712,0 0.07616,-0.00162 0.111,-0.00932c0.12923,-0.02876 0.24752,-0.09561 0.35649,-0.20134c0.08872,-0.08588 0.14746,-0.17744 0.18189,-0.28357c0.05469,-0.1669 0.0474,-0.36298 -0.01904,-0.51611c-0.08264,-0.19162 -0.25117,-0.34839 -0.51975,-0.48289c-0.27709,-0.13895 -0.56391,-0.21997 -0.85761,-0.24266c-0.07049,-0.00527 -0.24266,-0.00527 -0.31274,0c-0.25522,0.02026 -0.47114,0.09034 -0.64858,0.21147c-0.20782,0.14219 -0.46587,0.44562 -0.67936,0.80049c-0.02309,0.03849 -0.04254,0.06927 -0.04335,0.06846c-0.00041,-0.00041 -0.00324,-0.03079 -0.00567,-0.06765c-0.02147,-0.32084 -0.08629,-0.55702 -0.19931,-0.72717c-0.03808,-0.05793 -0.1114,-0.13206 -0.16488,-0.16771c-0.09398,-0.06239 -0.20458,-0.10006 -0.33907,-0.11586c-0.05753,-0.00689 -0.20053,-0.00729 -0.25481,-0.00122zM30.99023,24.52604c-0.18513,0.02836 -0.35649,0.12842 -0.4679,0.27304c-0.08062,0.10492 -0.13855,0.25441 -0.15475,0.40187l-0.00365,0.03119l0.5793,0.57444c0.31841,0.31598 0.6583,0.65263 0.75471,0.74823l0.17582,0.17379l-0.00162,-0.66194c-0.00122,-0.45453 -0.00324,-0.67855 -0.00648,-0.71461c-0.01945,-0.22078 -0.0393,-0.31801 -0.08386,-0.41118c-0.03524,-0.07373 -0.06846,-0.11991 -0.13085,-0.1827c-0.13288,-0.13288 -0.27426,-0.20782 -0.43995,-0.23253c-0.05104,-0.0077 -0.16852,-0.00729 -0.22078,0.00041zM30.54948,26.7039l-0.32409,-0.32084l-0.00243,0.01701c-0.01337,0.09804 -0.01863,0.35285 -0.01863,0.93742v0.5392l-0.14057,0.00243c-0.09398,0.00162 -0.15637,0.00446 -0.18756,0.00851c-0.17946,0.02471 -0.30221,0.07859 -0.40065,0.17622c-0.09642,0.0952 -0.143,0.20053 -0.14908,0.33664c-0.00648,0.14746 0.03241,0.26535 0.12275,0.37229c0.10492,0.12477 0.25603,0.19081 0.47154,0.20701c0.02998,0.00203 0.10614,0.00405 0.16893,0.00405h0.11424l0.00162,1.61111c0.00122,1.15293 0.00284,1.63177 0.00608,1.68241c0.02309,0.34758 0.04942,0.54932 0.09844,0.74297c0.07089,0.28155 0.20822,0.4922 0.42739,0.65708c0.2301,0.17298 0.52542,0.26129 0.95484,0.2856c0.11019,0.00608 0.43711,0.00243 0.54568,-0.00608c0.43184,-0.03443 0.72393,-0.11424 0.9358,-0.25562c0.10735,-0.0717 0.18068,-0.15151 0.22686,-0.24712c0.04173,-0.08548 0.05388,-0.14219 0.05428,-0.24509c0.00041,-0.10047 -0.01215,-0.16002 -0.05023,-0.23618c-0.07211,-0.14422 -0.22119,-0.25684 -0.36865,-0.27871c-0.07859,-0.01134 -0.20904,0.00203 -0.41726,0.04294c-0.20134,0.0393 -0.2852,0.04902 -0.40065,0.04537c-0.18716,-0.00567 -0.29451,-0.05834 -0.3727,-0.1827c-0.05266,-0.08426 -0.07738,-0.16933 -0.09155,-0.31639c-0.01539,-0.16083 -0.01539,-0.16609 -0.01701,-1.74925l-0.00162,-1.55034h0.16933c0.24428,0 0.3727,-0.0077 0.50598,-0.03038c0.19688,-0.03322 0.3411,-0.09398 0.42577,-0.17865c0.06846,-0.06846 0.11019,-0.16002 0.12315,-0.27021c0.00608,-0.05104 0.00243,-0.15151 -0.00648,-0.19324c-0.04335,-0.20012 -0.19081,-0.34799 -0.40106,-0.40227c-0.10857,-0.02795 -0.1588,-0.03119 -0.51813,-0.03119h-0.30018l-0.43022,-0.42658c-0.23658,-0.23415 -0.57566,-0.5708 -0.7539,-0.74742zM25.14049,27.73611c-0.64655,0.02674 -1.12377,0.14017 -1.56007,0.37108c-0.32895,0.17379 -0.55621,0.37959 -0.71623,0.64777c-0.12639,0.21187 -0.18675,0.41604 -0.18675,0.62994c0,0.10573 0.01499,0.17622 0.05469,0.25765c0.02674,0.05469 0.06117,0.10209 0.10695,0.14746c0.09804,0.09642 0.21147,0.15516 0.35082,0.18149c0.05226,0.00972 0.21268,0.00972 0.27669,-0.00041c0.08224,-0.01296 0.1426,-0.03484 0.18554,-0.06725c0.03686,-0.02755 0.10087,-0.11505 0.27102,-0.37108c0.1349,-0.20255 0.17987,-0.2617 0.26899,-0.35042c0.27345,-0.27345 0.55702,-0.37189 1.1023,-0.38364c0.49018,-0.01013 0.81548,0.08588 0.96334,0.28357c0.13044,0.1746 0.21106,0.43995 0.23537,0.77659c0.00243,0.03241 0.00527,0.07049 0.00648,0.08507l0.00243,0.02633l-0.11262,0.032c-0.39255,0.1114 -0.72231,0.19526 -1.11323,0.28195c-0.23334,0.05185 -0.37634,0.08224 -0.85478,0.18027c-0.4922,0.10128 -0.63075,0.13247 -0.74945,0.16933c-0.27669,0.08669 -0.50436,0.20782 -0.70489,0.37472c-0.05753,0.04821 -0.1742,0.16771 -0.2224,0.22767c-0.19121,0.23901 -0.29411,0.48775 -0.3334,0.80616c-0.01013,0.08426 -0.01013,0.30545 0,0.3889c0.0316,0.254 0.111,0.47843 0.24387,0.69152c0.24874,0.39863 0.67612,0.68382 1.18696,0.7932c0.18594,0.0397 0.34191,0.05266 0.58295,0.04942c0.31153,-0.00446 0.56553,-0.04051 0.83168,-0.1187c0.38485,-0.11262 0.82358,-0.34961 1.26312,-0.6822c0.04011,-0.03038 0.07494,-0.05631 0.07778,-0.05793c0.00284,-0.00162 0.01539,0.01499 0.03403,0.04497c0.14462,0.23253 0.29978,0.43549 0.43914,0.57404c0.12477,0.12437 0.23942,0.19607 0.3646,0.22767c0.05023,0.01256 0.14624,0.01701 0.20741,0.00972c0.17663,-0.02188 0.33664,-0.10533 0.46952,-0.24468c0.11019,-0.11546 0.16366,-0.23577 0.16366,-0.36703c0,-0.09763 -0.03686,-0.26048 -0.12923,-0.56837c-0.08021,-0.26697 -0.11708,-0.44035 -0.13976,-0.65749c-0.01458,-0.13814 -0.0158,-0.19891 -0.01053,-0.68463c0.00689,-0.68828 0.00729,-1.50943 0.00081,-1.6184c-0.02066,-0.33907 -0.05874,-0.58052 -0.12923,-0.81832c-0.1029,-0.34718 -0.26251,-0.59672 -0.50557,-0.79158c-0.35568,-0.28479 -0.87301,-0.43306 -1.65081,-0.47235c-0.11262,-0.00567 -0.46871,-0.0081 -0.5712,-0.00405zM26.12652,17.23128c0.25279,0.24793 0.42293,0.56067 0.52299,0.96051c0.04213,0.16933 0.06887,0.34232 0.0875,0.56918c0.00689,0.08386 0.00932,0.42455 0.00405,0.52664c-0.0239,0.44319 -0.10695,0.79644 -0.25967,1.10594c-0.06765,0.13652 -0.13044,0.23618 -0.22119,0.35042c-0.05104,0.0636 -0.18473,0.19891 -0.24185,0.24468c-0.25198,0.20053 -0.52988,0.30545 -0.87584,0.33097c-0.08143,0.00567 -0.26778,0.00243 -0.34232,-0.00608c-0.35852,-0.04213 -0.64939,-0.17784 -0.89488,-0.41767c-0.13693,-0.13369 -0.24549,-0.2852 -0.33826,-0.47195c-0.15961,-0.32084 -0.24793,-0.68585 -0.27385,-1.12822c-0.00527,-0.08831 -0.00527,-0.36784 0,-0.4598c0.01458,-0.25967 0.05347,-0.50355 0.11343,-0.7138c0.16042,-0.5631 0.44886,-0.94795 0.86693,-1.1578c0.19081,-0.09561 0.42658,-0.15475 0.6502,-0.16326c0.48977,-0.01823 0.89124,0.12558 1.20276,0.43022zM26.49962,30.88987l0.00122,0.12356c0.00122,0.12761 -0.00446,0.34434 -0.01134,0.44359c-0.01904,0.2617 -0.06158,0.4841 -0.12356,0.64412c-0.10938,0.28236 -0.32611,0.50679 -0.64817,0.67045c-0.20741,0.10533 -0.41888,0.16488 -0.6664,0.18675c-0.07211,0.00608 -0.23699,0.00608 -0.29573,0c-0.19607,-0.02147 -0.35609,-0.08102 -0.49099,-0.18311c-0.04092,-0.03119 -0.11708,-0.10452 -0.14989,-0.14422c-0.13369,-0.16366 -0.19324,-0.36419 -0.17298,-0.58457c0.01458,-0.16245 0.07251,-0.29613 0.17217,-0.39822c0.09601,-0.09885 0.28276,-0.21673 0.42091,-0.26575c0.10411,-0.03686 0.33016,-0.09074 0.89731,-0.21349c0.50193,-0.10857 0.77294,-0.17825 1.00467,-0.25765zM18.48053,23.0632c0.45858,0.04092 0.86814,0.19607 1.2299,0.46628c0.50314,0.37553 0.90987,0.98076 1.15496,1.71927c0.05469,0.16407 0.12882,0.44157 0.12032,0.44926c-0.00324,0.00324 -5.70998,1.36359 -5.74036,1.36845l-0.01215,0.00203l-0.00689,-0.06846c-0.07778,-0.75796 0.02876,-1.54427 0.29289,-2.16408c0.21592,-0.50638 0.51935,-0.90541 0.91352,-1.20155c0.30018,-0.22524 0.65506,-0.38931 1.04882,-0.4841c0.19081,-0.04618 0.39133,-0.07778 0.5635,-0.08912c0.03808,-0.00243 0.079,-0.00486 0.09115,-0.00567c0.04983,-0.00324 0.27831,0.00162 0.34434,0.0077z" fill="#ffffff" stroke-width="0"></path><path d="M2,24c0,-12.15026 9.84974,-22 22,-22c12.15026,0 22,9.84974 22,22c0,12.15026 -9.84974,22 -22,22c-12.15026,0 -22,-9.84974 -22,-22z" id="base 1 1 1" fill="none" stroke-width="1"></path><g fill="#000000" stroke-width="1" font-family="Roboto, sans-serif" font-weight="400" font-size="14" text-anchor="start"><g></g></g><rect x="2" y="2" width="44" height="22" fill="none" stroke-width="1"></rect><path d="M2,24v-22h44v22z" fill="none" stroke-width="1"></path><path d="M2,24v-22h44v22z" fill="none" stroke-width="1"></path><path d="M2,24v-22h44v22z" fill="none" stroke-width="1"></path><path d="M2,24v-22h44v22z" fill="none" stroke-width="1"></path></g></svg>